<?xml version="1.0"?>
<svg width="700" height="200" xmlns="http://www.w3.org/2000/svg" xmlns:svg="http://www.w3.org/2000/svg" preserveAspectRatio="xMidYMid meet">

 <g class="layer">
  <title>Layer 1</title>
  <g fill="#000000" id="svg_1" transform="translate(0, 700) scale(0.1, -0.1)">
   <path d="m6086,6910c7,-40 6,-40 -40,-60c-42,-19 -46,-24 -46,-55c0,-33 -2,-34 -69,-55c-74,-23 -85,-31 -94,-71c-6,-23 -77,-97 -210,-215c-49,-45 -57,-57 -57,-87c0,-20 -5,-48 -12,-61c-9,-22 -8,-29 8,-47c30,-33 89,-59 134,-59c36,0 117,31 130,50c10,14 69,40 93,40c12,0 28,-5 34,-11c6,-6 47,-13 92,-16c44,-3 81,-9 81,-14c0,-4 -16,-25 -35,-46c-80,-86 -196,-243 -231,-313c-31,-62 -38,-88 -41,-150c-6,-105 -9,-117 -38,-124c-16,-4 -30,-19 -39,-41c-8,-19 -19,-35 -25,-35c-5,0 -23,-12 -40,-26c-31,-25 -31,-27 -31,-119c0,-85 2,-97 24,-122l24,-28l447,0l447,0l19,24c16,19 19,40 19,126c0,111 -5,122 -63,144c-15,6 -27,18 -27,27c0,9 -14,32 -31,51c-29,34 -30,38 -24,97c6,59 32,163 59,236c33,87 39,110 58,190c32,142 15,292 -49,428c-57,123 -161,217 -298,272c-33,13 -81,43 -107,67c-59,54 -70,55 -62,3z" id="svg_2"/>
   <path d="m945,5981c-6,-6 -8,-121 -5,-313l5,-303l93,-3l92,-3l0,181c1,99 1,240 1,313l1,132l-89,3c-49,1 -93,-2 -98,-7z" id="svg_3"/>
   <path d="m2082,5978c-9,-9 -12,-75 -12,-254c0,-269 -5,-248 78,-331c33,-33 36,-34 105,-31l71,3l9,38c10,43 -8,73 -47,79c-21,3 -21,7 -26,253l-5,250l-80,3c-54,2 -84,-1 -93,-10z" id="svg_4"/>
   <path d="m2396,5983c-3,-4 -6,-121 -6,-261l0,-255l54,-54l54,-54l78,3l79,3l3,38c4,45 -19,77 -53,77c-13,0 -26,8 -29,17c-4,9 -6,123 -5,253l1,235l-85,2c-47,1 -88,-1 -91,-4z" id="svg_5"/>
   <path d="m387,5862l-57,-58l0,-166l0,-166l62,-56c73,-66 102,-72 116,-23c12,38 11,496 -1,515c-19,29 -62,13 -120,-46z" id="svg_6"/>
   <path d="m558,5909c-12,-7 -18,-22 -18,-48c0,-43 10,-51 68,-51c51,0 60,-9 64,-60l3,-45l90,0l90,0l3,54l3,54l-57,54l-58,53l-85,0c-47,0 -94,-5 -103,-11z" id="svg_7"/>
   <path d="m1186,5779c-39,-46 -31,-73 24,-81l25,-3l3,-168l2,-168l88,3l87,3l3,168l2,168l-51,54c-50,53 -54,55 -105,55c-46,0 -55,-4 -78,-31z" id="svg_8"/>
   <path d="m1574,5788c-44,-51 -47,-57 -34,-73c10,-12 38,-15 136,-15l124,0l2,-167l3,-168l85,0l85,0l3,168l2,168l-51,54l-52,55l-142,0c-134,0 -143,-1 -161,-22z" id="svg_9"/>
   <path d="m2751,5756l-51,-55l0,-112l0,-113l60,-58c64,-62 101,-74 120,-39c11,21 14,388 4,415c-4,11 -19,16 -44,16c-32,0 -44,-7 -89,-54z" id="svg_10"/>
   <path d="m2924,5796c-3,-8 -4,-31 -2,-52c3,-37 5,-39 40,-42c70,-6 71,-60 2,-71c-33,-5 -39,-10 -42,-34c-6,-48 5,-52 141,-49l125,3l4,70l3,70l-60,59l-61,60l-72,0c-53,0 -74,-4 -78,-14z" id="svg_11"/>
   <path d="m3270,5585l0,-226l88,3l87,3l0,220l0,220l-87,3l-88,3l0,-226z" id="svg_12"/>
   <path d="m3508,5780c-16,-16 -28,-38 -28,-49c0,-14 8,-22 28,-27c15,-3 33,-7 39,-9c9,-3 13,-49 15,-167l3,-163l94,0l94,0l-2,164c-1,91 -7,173 -12,183c-5,10 -29,36 -52,58c-39,36 -46,39 -97,39c-47,0 -59,-4 -82,-29z" id="svg_13"/>
   <path d="m3887,5753l-57,-58l0,-112l0,-111l62,-56c53,-49 67,-56 102,-56c33,0 49,7 80,36c44,40 56,35 56,-28c0,-59 -18,-69 -123,-67c-74,1 -93,-1 -101,-14c-8,-13 -4,-23 19,-47l29,-30l125,0l125,0l58,57l58,57l0,186l0,186l-58,57l-58,58l-80,-3l-79,-3l0,-44c0,-43 1,-44 40,-55l40,-12l3,-99c2,-55 0,-110 -3,-121c-4,-20 -8,-21 -47,-12c-24,5 -47,13 -51,17c-5,5 -10,76 -11,157c-1,82 -5,155 -9,162c-5,6 -21,12 -36,12c-21,0 -43,-15 -84,-57z" id="svg_14"/>
   <path d="m4447,5752l-57,-58l0,-108l0,-108l63,-59c66,-62 89,-70 120,-42c18,17 19,17 32,0c10,-14 28,-17 102,-17c89,0 90,0 126,35c43,42 45,50 16,66c-20,10 -210,9 -249,-2c-12,-3 -16,8 -18,50l-3,53l43,-5c24,-4 90,-7 148,-9l105,-3l3,76l3,75l-58,57l-58,57l-73,0c-40,0 -82,-5 -92,-10c-13,-7 -21,-7 -25,0c-3,5 -21,10 -38,10c-26,0 -44,-11 -90,-58zm257,-62c5,-5 6,-19 2,-33c-5,-21 -13,-25 -57,-30c-29,-4 -56,-4 -60,-1c-11,6 -12,68 -1,78c9,10 104,-2 116,-14z" id="svg_15"/>
   <path d="m4960,5808c-1,-2 -1,-102 -2,-223l0,-220l97,0l96,0l0,212c0,117 -2,217 -6,223c-5,8 -184,16 -185,8z" id="svg_16"/>
   <path d="m5211,5774c-18,-20 -30,-41 -28,-47c2,-7 19,-17 38,-23c31,-11 34,-15 39,-60l5,-49l85,0l85,0l3,60c2,58 1,61 -42,108c-42,45 -45,47 -99,47c-51,0 -57,-3 -86,-36z" id="svg_17"/>
   <path d="m1538,5584c-59,-72 -51,-137 22,-201c20,-18 37,-22 92,-23c62,0 68,2 92,31c40,47 31,74 -29,81c-59,6 -39,78 22,78c16,0 24,7 29,25c11,44 -9,55 -105,55l-86,0l-37,-46z" id="svg_18"/>
   <path d="m679,5553c-1,-4 -1,-11 0,-15c0,-4 -4,-19 -9,-33c-7,-19 -17,-25 -38,-25c-16,0 -43,-5 -61,-11c-25,-9 -31,-16 -31,-41c0,-61 12,-68 108,-68l88,0l63,58c59,54 62,59 59,97l-3,40l-87,3c-49,1 -89,-1 -89,-5z" id="svg_19"/>
   <path d="m2924,5456c-3,-7 -4,-31 -2,-52l3,-39l89,-3c89,-3 89,-3 123,30c21,20 33,40 31,53c-3,19 -11,20 -121,23c-94,2 -118,0 -123,-12z" id="svg_20"/>
  </g>
 </g>
</svg>